<svg xmlns="http://www.w3.org/2000/svg" width="453" height="73" fill="none" viewBox="0 0 453 73"><rect width="3.886" height="12.212" fill="#64CA43" rx="1.943" transform="matrix(-0.825943 0.563754 0.563755 0.825942 404.047 48.594)"/><rect width="3.053" height="9.594" fill="#FF2D55" rx="1.526" transform="matrix(-0.672177 0.740391 0.740391 0.672176 417.97 13.4998)"/><rect width="3.643" height="11.449" fill="#117AC9" rx="1.821" transform="matrix(-0.6382 -0.769871 -0.769872 0.638198 391.795 24.9504)"/><rect width="3.886" height="12.212" fill="#FF8085" rx="1.943" transform="matrix(-0.404372 -0.914595 -0.914595 0.404371 170.94 14.6914)"/><rect width="5.343" height="16.791" fill="#FF8085" rx="2.671" transform="matrix(0.39264 0.919692 0.919692 -0.392642 328.119 50.6055)"/><circle r="3.434" fill="#F0B849" transform="matrix(-0.949193 -0.314694 -0.314694 0.949193 433.694 60.544)"/><ellipse fill="#BF5AF2" rx="2.289" ry="2.289" transform="matrix(-0.949193 -0.314695 -0.314693 0.949194 449.993 44.0008)"/><ellipse fill="#BF5AF2" rx="1.526" ry="1.526" transform="matrix(-0.949194 -0.314692 -0.314695 0.949193 373.339 63.31)"/><ellipse fill="#09B585" rx="2.289" ry="2.289" transform="matrix(-0.949194 -0.314692 -0.314695 0.949193 160.713 54.097)"/><rect width="5.343" height="16.791" x="314.273" y="17.219" fill="#984A9C" rx="2.671" transform="rotate(-51.7958 314.273 17.2192)"/><rect width="3.886" height="12.212" fill="#64CA43" rx="1.943" transform="matrix(0.618465 -0.785812 0.78581 0.618467 27.061 34.741)"/><rect width="3.643" height="11.449" fill="#E7C037" rx="1.821" transform="matrix(-0.988881 -0.148711 0.148714 -0.98888 267.602 27.863)"/><rect width="3.007" height="9.45" fill="#E7C037" rx="1.503" transform="matrix(0.226971 0.973902 -0.973902 0.226968 212.204 51)"/><rect width="3.886" height="12.212" fill="#3361CC" rx="1.943" transform="matrix(0.78581 0.618468 -0.618465 0.785812 269.396 56.8789)"/><circle cx="90.527" cy="45.693" r="3.434" fill="#F0B849" transform="rotate(-1.79578 90.527 45.6926)"/><circle cx="59.86" cy="27.116" r="2.289" fill="#BF5AF2" transform="rotate(-1.79576 59.8596 27.1158)"/><circle cx="307.109" cy="60.766" r="1.526" fill="#F0C930" transform="rotate(-1.79574 307.109 60.7663)"/><circle cx="357.311" cy="28.544" r="1.526" fill="#F0C930" transform="rotate(-1.79574 357.311 28.5444)"/><ellipse cx="237.248" cy="47.367" fill="#3361CC" rx="1.526" ry="1.526" transform="rotate(-1.79578 237.248 47.3674)"/><circle cx="290.869" cy="39.933" r="1.908" fill="#37E688" transform="rotate(-1.79577 290.869 39.9329)"/><rect width="3.886" height="12.212" fill="#64CA43" rx="1.943" transform="matrix(0.336735 -0.941599 0.941599 0.336737 108.684 60.751)"/><rect width="3.886" height="12.212" x="131.252" y="25.128" fill="#3361CC" rx="1.943" transform="rotate(5.81869 131.252 25.1282)"/><ellipse fill="#F0B849" rx="3.434" ry="3.434" transform="matrix(0.827262 -0.561816 0.561811 0.827266 21.4569 67.7751)"/><circle cx="195.819" cy="33.165" r="2.289" fill="#BF5AF2" transform="rotate(-34.1813 195.819 33.1654)"/><circle r="1.526" fill="#3361CC" transform="matrix(0.827266 -0.56181 0.561818 0.827261 64.254 65.9745)"/><ellipse fill="#37E688" rx="1.908" ry="1.908" transform="matrix(0.827265 -0.561812 0.561815 0.827263 2.58724 48.3031)"/><ellipse fill="#F0C930" rx="1.908" ry="1.908" transform="matrix(0.827265 -0.561812 0.561815 0.827263 27.9769 15.6493)"/><ellipse cx="231.367" cy="21.336" fill="#09B585" rx="2.289" ry="2.289" transform="rotate(-34.1813 231.367 21.336)"/><ellipse fill="#FF3B30" rx="2.289" ry="2.289" transform="matrix(0.827267 -0.561809 0.561819 0.82726 100.164 15.4271)"/></svg>